<?xml version="1.0" encoding="UTF-8" standalone="no"?>
<svg width="100%" height="100%" viewBox="0 0 512 512" version="1.1" xmlns="http://www.w3.org/2000/svg" xmlns:xlink="http://www.w3.org/1999/xlink" xml:space="preserve" xmlns:serif="http://www.serif.com/" style="fill-rule:evenodd;clip-rule:evenodd;stroke-linejoin:round;stroke-miterlimit:2;">
    <path d="M512,50C512,22.404 489.596,0 462,0L50,0C22.404,0 0,22.404 0,50L0,462C0,489.596 22.404,512 50,512L462,512C489.596,512 512,489.596 512,462L512,50Z"/>
    <path d="M112,208L112,400L304,400L304,304L208,304L208,208L112,208Z" style="fill:#f2f2f2;"/>
    <path d="M208,112L400,112L400,304L304,304L304,208L208,208L208,112Z" style="fill:#f2f2f2;"/>
</svg>
